<svg width="100" height="100" viewBox="0 0 100 100" fill="none" xmlns="http://www.w3.org/2000/svg">
<path d="M73.3268 64.4908H68.6931L67.0507 62.908C70.7164 58.652 73.3954 53.6388 74.8961 48.2272C76.3968 42.8156 76.6821 37.1394 75.7316 31.6048C72.9749 15.3083 59.367 2.29463 42.9437 0.301541C37.1698 -0.428483 31.3053 0.171237 25.7991 2.05481C20.2928 3.93838 15.2906 7.05588 11.1753 11.1688C7.06002 15.2816 3.94069 20.2809 2.05601 25.7839C0.171338 31.287 -0.428734 37.148 0.301718 42.9185C2.29598 59.3322 15.3173 72.9321 31.6233 75.6872C37.1612 76.6372 42.8408 76.352 48.2555 74.8522C53.6703 73.3524 58.6864 70.6749 62.9449 67.0114L64.5286 68.6528V73.2838L89.4568 98.1974C91.8617 100.601 95.7915 100.601 98.1964 98.1974C100.601 95.794 100.601 91.8664 98.1964 89.463L73.3268 64.4908ZM38.134 64.4908C23.529 64.4908 11.7394 52.7081 11.7394 38.1116C11.7394 23.5152 23.529 11.7325 38.134 11.7325C52.739 11.7325 64.5286 23.5152 64.5286 38.1116C64.5286 52.7081 52.739 64.4908 38.134 64.4908Z" fill="#EA7D0F"/>
</svg>
